<?xml version="1.0" encoding="UTF-8" standalone="no"?>
<!-- Created with Inkscape (http://www.inkscape.org/) -->
<svg
   xmlns:dc="http://purl.org/dc/elements/1.1/"
   xmlns:cc="http://creativecommons.org/ns#"
   xmlns:rdf="http://www.w3.org/1999/02/22-rdf-syntax-ns#"
   xmlns:svg="http://www.w3.org/2000/svg"
   xmlns="http://www.w3.org/2000/svg"
   xmlns:sodipodi="http://sodipodi.sourceforge.net/DTD/sodipodi-0.dtd"
   xmlns:inkscape="http://www.inkscape.org/namespaces/inkscape"
   width="485"
   height="430"
   id="svg2"
   sodipodi:version="0.32"
   inkscape:version="0.46"
   version="1.0"
   sodipodi:docname="oarc.svg"
   inkscape:output_extension="org.inkscape.output.svg.inkscape">
  <defs
     id="defs4">
    <inkscape:perspective
       sodipodi:type="inkscape:persp3d"
       inkscape:vp_x="0 : 526.18109 : 1"
       inkscape:vp_y="0 : 1000 : 0"
       inkscape:vp_z="744.09448 : 526.18109 : 1"
       inkscape:persp3d-origin="372.04724 : 350.78739 : 1"
       id="perspective10" />
    <inkscape:perspective
       id="perspective2487"
       inkscape:persp3d-origin="372.04724 : 350.78739 : 1"
       inkscape:vp_z="744.09448 : 526.18109 : 1"
       inkscape:vp_y="0 : 1000 : 0"
       inkscape:vp_x="0 : 526.18109 : 1"
       sodipodi:type="inkscape:persp3d" />
    <inkscape:perspective
       id="perspective3504"
       inkscape:persp3d-origin="372.04724 : 350.78739 : 1"
       inkscape:vp_z="744.09448 : 526.18109 : 1"
       inkscape:vp_y="0 : 1000 : 0"
       inkscape:vp_x="0 : 526.18109 : 1"
       sodipodi:type="inkscape:persp3d" />
  </defs>
  <sodipodi:namedview
     id="base"
     pagecolor="#ffffff"
     bordercolor="#666666"
     borderopacity="1.0"
     gridtolerance="10000"
     guidetolerance="10"
     objecttolerance="10"
     inkscape:pageopacity="0.0"
     inkscape:pageshadow="2"
     inkscape:zoom="1.744186"
     inkscape:cx="242.5"
     inkscape:cy="215"
     inkscape:document-units="in"
     inkscape:current-layer="layer1"
     showgrid="false"
     units="in"
     inkscape:window-width="1400"
     inkscape:window-height="975"
     inkscape:window-x="0"
     inkscape:window-y="25"
     showguides="true"
     inkscape:guide-bbox="true"
     borderlayer="true" />
  <metadata
     id="metadata7">
    <rdf:RDF>
      <cc:Work
         rdf:about="">
        <dc:format>image/svg+xml</dc:format>
        <dc:type
           rdf:resource="http://purl.org/dc/dcmitype/StillImage" />
      </cc:Work>
    </rdf:RDF>
  </metadata>
  <g
     inkscape:label="Layer 1"
     inkscape:groupmode="layer"
     id="layer1"
     transform="translate(-99.24001,-120.93495)">
    <g
       id="g3510"
       transform="translate(7.9616398,7.9533333)">
      <text
         sodipodi:linespacing="100%"
         id="text2493"
         y="497.69342"
         x="333.9744"
         style="font-size:20px;font-style:normal;font-variant:normal;font-weight:normal;font-stretch:normal;text-align:center;line-height:100%;writing-mode:lr-tb;text-anchor:middle;fill:#000000;fill-opacity:1;stroke:none;stroke-width:1px;stroke-linecap:butt;stroke-linejoin:miter;stroke-opacity:1;font-family:Arial Black;-inkscape-font-specification:Arial Black"
         xml:space="preserve"><tspan
           y="497.69342"
           x="333.9744"
           id="tspan2495"
           sodipodi:role="line">OTTAWA</tspan><tspan
           id="tspan2497"
           y="517.69342"
           x="333.9744"
           sodipodi:role="line">AMATEUR RADIO CLUB</tspan></text>
      <path
         sodipodi:nodetypes="ccccccc"
         id="path2499"
         d="M 285.09732,246.70866 L 269.43495,303.00851 L 285.94393,303.22016 L 244.03654,369.46771 L 259.48725,319.30582 L 243.40157,319.51747 L 285.09732,246.70866 z"
         style="fill:#ffff00;fill-opacity:1;fill-rule:evenodd;stroke:none;stroke-width:1px;stroke-linecap:butt;stroke-linejoin:miter;stroke-opacity:1" />
      <path
         sodipodi:nodetypes="ccccccc"
         id="path3271"
         d="M 384.15118,249.67181 L 425.00032,319.72913 L 407.64472,319.30582 L 423.30708,368.6211 L 382.03465,303.0085 L 398.75527,303.0085 L 384.15118,249.67181 z"
         style="fill:#ffff00;fill-opacity:1;fill-rule:evenodd;stroke:none;stroke-width:1px;stroke-linecap:butt;stroke-linejoin:miter;stroke-opacity:1" />
      <path
         id="path3273"
         d="M 333.72899,127.23495 L 563.90221,534.0066 L 105.54001,534.0066 L 333.72899,127.23495 z"
         style="fill:none;fill-rule:evenodd;stroke:#000000;stroke-width:12.60000038;stroke-linecap:butt;stroke-linejoin:miter;stroke-miterlimit:4;stroke-dasharray:none;stroke-opacity:1" />
      <path
         id="path3275"
         d="M 301.15625,195.0625 C 301.15625,196.4375 301.15625,197.8125 301.15625,199.1875 C 307.42708,199.1875 313.69792,199.1875 319.96875,199.1875 C 322.125,200.625 324.28125,202.0625 326.4375,203.5 C 320.64583,203.5 314.85417,203.5 309.0625,203.5 C 309.0625,204.875 309.0625,206.25 309.0625,207.625 C 316.67708,207.625 324.29167,207.625 331.90625,207.625 C 331.90625,208.96875 331.90625,210.3125 331.90625,211.65625 C 327.10417,211.65625 322.30208,211.65625 317.5,211.65625 C 317.5,213.03125 317.5,214.40625 317.5,215.78125 C 322.30208,215.78125 327.10417,215.78125 331.90625,215.78125 C 331.90625,227.28125 331.90625,238.78125 331.90625,250.28125 L 296.71875,357.71875 L 296.65625,357.71875 L 296.65625,460.78125 L 290.0625,460.78125 L 290.0625,367.375 L 288.125,367.375 L 276.59375,354.53125 L 265.6875,367.375 L 263.4375,367.375 L 263.4375,460.78125 L 263.4375,465.59375 L 263.4375,474.96875 L 296.65625,474.96875 L 296.65625,475.09375 L 368.21875,475.09375 L 368.21875,475.1875 L 404.4375,475.1875 L 404.4375,461 L 404.21875,461 L 404.21875,367.59375 L 402.65625,367.59375 L 390.8125,354.40625 L 379.59375,367.59375 L 377.59375,367.59375 L 377.59375,461 L 371.0625,461 L 371.0625,358.59375 L 371.34375,358.59375 L 371.0625,357.71875 L 336.03125,250.34375 C 336.03125,238.82292 336.03125,227.30208 336.03125,215.78125 C 346.375,215.78125 356.71875,215.78125 367.0625,215.78125 C 367.0625,214.40625 367.0625,213.03125 367.0625,211.65625 C 360.44792,211.65625 353.83333,211.65625 347.21875,211.65625 C 345.21449,210.31886 343.2192,208.96807 341.21875,207.625 C 347.01042,207.625 352.80208,207.625 358.59375,207.625 C 358.59375,206.25 358.59375,204.875 358.59375,203.5 C 350.75,203.5 342.90625,203.5 335.0625,203.5 C 332.92708,202.0625 330.79167,200.625 328.65625,199.1875 C 336.01042,199.1875 343.36458,199.1875 350.71875,199.1875 C 350.71875,197.8125 350.71875,196.4375 350.71875,195.0625 C 334.19792,195.0625 317.67708,195.0625 301.15625,195.0625 z M 336.03125,209.90625 C 336.73307,210.45513 338.31313,211.27275 338.46875,211.65625 C 337.57447,211.43802 335.61645,212.2773 336.03125,210.75 C 336.03125,210.46355 336.03125,210.1927 336.03125,209.90625 z M 304.8125,363.5 L 313.34375,363.5 L 313.34375,369.65625 L 304.8125,369.65625 L 304.8125,363.5 z M 317.125,363.5 L 325.6875,363.5 L 325.6875,369.65625 L 317.125,369.65625 L 317.125,363.5 z M 329.65625,363.5 L 338.21875,363.5 L 338.21875,369.65625 L 329.65625,369.65625 L 329.65625,363.5 z M 342.1875,363.5 L 350.75,363.5 L 350.75,369.65625 L 342.1875,369.65625 L 342.1875,363.5 z M 354.53125,363.5 L 363.09375,363.5 L 363.09375,369.65625 L 354.53125,369.65625 L 354.53125,363.5 z M 267.59375,375.4375 L 273.5,375.4375 L 273.5,466.90625 L 267.59375,466.90625 L 267.59375,375.4375 z M 280.03125,375.65625 L 285.9375,375.65625 L 285.9375,467.125 L 280.03125,467.125 L 280.03125,375.65625 z M 381.75,375.65625 L 387.65625,375.65625 L 387.65625,467.125 L 381.75,467.125 L 381.75,375.65625 z M 394.1875,375.65625 L 400.09375,375.65625 L 400.09375,467.125 L 394.1875,467.125 L 394.1875,375.65625 z M 333.65625,392.5625 C 352.21634,392.5625 367.28125,407.52613 367.28125,425.96875 C 367.28125,444.41137 352.21634,459.375 333.65625,459.375 C 315.09616,459.37499 300.03125,444.41137 300.03125,425.96875 C 300.03125,407.52612 315.09616,392.5625 333.65625,392.5625 z M 304.8125,460.78125 L 313.34375,460.78125 L 313.34375,466.9375 L 304.8125,466.9375 L 304.8125,460.78125 z M 317.34375,460.96875 L 325.875,460.96875 L 325.875,467.15625 L 317.34375,467.15625 L 317.34375,460.96875 z M 329.46875,460.96875 L 338.03125,460.96875 L 338.03125,467.15625 L 329.46875,467.15625 L 329.46875,460.96875 z M 342,460.96875 L 350.5625,460.96875 L 350.5625,467.15625 L 342,467.15625 L 342,460.96875 z M 354.53125,460.96875 L 363.09375,460.96875 L 363.09375,467.15625 L 354.53125,467.15625 L 354.53125,460.96875 z"
         style="opacity:1;fill:#000000;fill-opacity:1;fill-rule:evenodd;stroke:none;stroke-width:1px;stroke-linecap:butt;stroke-linejoin:miter;stroke-opacity:1" />
      <path
         id="path3404"
         d="M 331.875,396.5 C 331.875,406.25 331.875,416 331.875,425.75 C 329.073,430.66668 326.26932,435.58199 323.46875,440.5 C 324.66432,441.18052 325.86694,441.85076 327.0625,442.53125 C 329.90386,437.55678 332.7257,432.57227 335.5625,427.59375 C 335.69411,427.36256 335.83805,427.13802 335.96875,426.90625 C 335.96875,426.89583 335.96875,426.88542 335.96875,426.875 C 335.9802,426.85475 335.98849,426.83271 336,426.8125 C 335.99999,420.14584 336,413.47917 336,406.8125 C 336.70888,406.8125 337.41776,406.8125 338.125,406.8125 C 338.12499,404.74023 338.125,402.66602 338.125,400.59375 C 337.41775,400.59375 336.70884,400.59375 336,400.59375 C 336,399.22917 336,397.86458 336,396.5 C 334.62711,396.5 333.24788,396.5 331.875,396.5 z"
         style="fill:#000000;fill-opacity:1;fill-rule:evenodd;stroke:none;stroke-width:3.96000028;stroke-linecap:square;stroke-linejoin:miter;stroke-miterlimit:4;stroke-dasharray:none;stroke-opacity:1" />
    </g>
  </g>
</svg>
