<?xml version="1.0" encoding="UTF-8" standalone="no"?>
<!-- Created with Inkscape (http://www.inkscape.org/) -->

<svg
   xmlns:dc="http://purl.org/dc/elements/1.1/"
   xmlns:cc="http://creativecommons.org/ns#"
   xmlns:rdf="http://www.w3.org/1999/02/22-rdf-syntax-ns#"
   xmlns:svg="http://www.w3.org/2000/svg"
   xmlns="http://www.w3.org/2000/svg"
   xmlns:sodipodi="http://sodipodi.sourceforge.net/DTD/sodipodi-0.dtd"
   xmlns:inkscape="http://www.inkscape.org/namespaces/inkscape"
   width="485"
   height="430"
   id="svg2"
   sodipodi:version="0.32"
   inkscape:version="0.47 r22583"
   version="1.0"
   sodipodi:docname="oarc.svg"
   inkscape:output_extension="org.inkscape.output.svg.inkscape">
  <defs
     id="defs4">
    <inkscape:perspective
       sodipodi:type="inkscape:persp3d"
       inkscape:vp_x="0 : 526.18109 : 1"
       inkscape:vp_y="0 : 1000 : 0"
       inkscape:vp_z="744.09448 : 526.18109 : 1"
       inkscape:persp3d-origin="372.04724 : 350.78739 : 1"
       id="perspective10" />
    <inkscape:perspective
       id="perspective2487"
       inkscape:persp3d-origin="372.04724 : 350.78739 : 1"
       inkscape:vp_z="744.09448 : 526.18109 : 1"
       inkscape:vp_y="0 : 1000 : 0"
       inkscape:vp_x="0 : 526.18109 : 1"
       sodipodi:type="inkscape:persp3d" />
    <inkscape:perspective
       id="perspective3504"
       inkscape:persp3d-origin="372.04724 : 350.78739 : 1"
       inkscape:vp_z="744.09448 : 526.18109 : 1"
       inkscape:vp_y="0 : 1000 : 0"
       inkscape:vp_x="0 : 526.18109 : 1"
       sodipodi:type="inkscape:persp3d" />
  </defs>
  <sodipodi:namedview
     id="base"
     pagecolor="#ffffff"
     bordercolor="#666666"
     borderopacity="1.0"
     gridtolerance="10000"
     guidetolerance="10"
     objecttolerance="10"
     inkscape:pageopacity="0.0"
     inkscape:pageshadow="2"
     inkscape:zoom="1.6674419"
     inkscape:cx="242.5"
     inkscape:cy="215"
     inkscape:document-units="in"
     inkscape:current-layer="layer1"
     showgrid="false"
     units="in"
     inkscape:window-width="1392"
     inkscape:window-height="972"
     inkscape:window-x="0"
     inkscape:window-y="25"
     showguides="true"
     inkscape:guide-bbox="true"
     borderlayer="true"
     inkscape:window-maximized="0" />
  <metadata
     id="metadata7">
    <rdf:RDF>
      <cc:Work
         rdf:about="">
        <dc:format>image/svg+xml</dc:format>
        <dc:type
           rdf:resource="http://purl.org/dc/dcmitype/StillImage" />
      </cc:Work>
    </rdf:RDF>
  </metadata>
  <g
     inkscape:label="Layer 1"
     inkscape:groupmode="layer"
     id="layer1"
     transform="translate(-99.24001,-120.93495)">
    <g
       id="g2831">
      <text
         sodipodi:linespacing="100%"
         id="text2493"
         y="505.64676"
         x="341.93604"
         style="font-size:20px;font-style:normal;font-variant:normal;font-weight:bold;font-stretch:normal;text-align:center;line-height:100%;writing-mode:lr;text-anchor:middle;fill:#000000;fill-opacity:1;stroke:none;font-family:Liberation Sans;-inkscape-font-specification:Liberation Sans Bold"
         xml:space="preserve"><tspan
           y="505.64676"
           x="341.93604"
           id="tspan2495"
           sodipodi:role="line">OTTAWA</tspan><tspan
           id="tspan2497"
           y="525.64673"
           x="341.93604"
           sodipodi:role="line">AMATEUR RADIO CLUB</tspan></text>
      <path
         sodipodi:nodetypes="ccccccc"
         id="path2499"
         d="m 293.05896,254.66199 -15.66237,56.29985 16.50898,0.21165 -41.90739,66.24755 15.45071,-50.16189 -16.08568,0.21165 41.69575,-72.80881 z"
         style="fill:#ffff00;fill-opacity:1;fill-rule:evenodd;stroke:none" />
      <path
         sodipodi:nodetypes="ccccccc"
         id="path3271"
         d="m 392.11282,257.62514 40.84914,70.05732 -17.3556,-0.42331 15.66236,49.31528 -41.27243,-65.6126 16.72062,0 -14.60409,-53.33669 z"
         style="fill:#ffff00;fill-opacity:1;fill-rule:evenodd;stroke:none" />
      <path
         id="path3273"
         d="m 341.69063,135.18828 230.17322,406.77165 -458.3622,0 228.18898,-406.77165 z"
         style="fill:none;stroke:#000000;stroke-width:12.60000038;stroke-linecap:butt;stroke-linejoin:miter;stroke-miterlimit:4;stroke-opacity:1;stroke-dasharray:none" />
      <path
         id="path3275"
         d="m 309.11789,203.01583 c 0,1.375 0,2.75 0,4.125 6.27083,0 12.54167,0 18.8125,0 2.15625,1.4375 4.3125,2.875 6.46875,4.3125 -5.79167,0 -11.58333,0 -17.375,0 0,1.375 0,2.75 0,4.125 7.61458,0 15.22917,0 22.84375,0 0,1.34375 0,2.6875 0,4.03125 -4.80208,0 -9.60417,0 -14.40625,0 0,1.375 0,2.75 0,4.125 4.80208,0 9.60417,0 14.40625,0 0,11.5 0,23 0,34.5 l -35.1875,107.4375 -0.0625,0 0,103.0625 -6.59375,0 0,-93.40625 -1.9375,0 -11.53125,-12.84375 -10.90625,12.84375 -2.25,0 0,93.40625 0,4.8125 0,9.375 33.21875,0 0,0.125 71.5625,0 0,0.0937 36.21875,0 0,-14.1875 -0.21875,0 0,-93.40625 -1.5625,0 -11.84375,-13.1875 -11.21875,13.1875 -2,0 0,93.40625 -6.53125,0 0,-102.40625 0.28125,0 -0.28125,-0.875 -35.03125,-107.375 c 0,-11.52083 0,-23.04167 0,-34.5625 10.34375,0 20.6875,0 31.03125,0 0,-1.375 0,-2.75 0,-4.125 -6.61458,0 -13.22917,0 -19.84375,0 -2.00426,-1.33739 -3.99955,-2.68818 -6,-4.03125 5.79167,0 11.58333,0 17.375,0 0,-1.375 0,-2.75 0,-4.125 -7.84375,0 -15.6875,0 -23.53125,0 -2.13542,-1.4375 -4.27083,-2.875 -6.40625,-4.3125 7.35417,0 14.70833,0 22.0625,0 0,-1.375 0,-2.75 0,-4.125 -16.52083,0 -33.04167,0 -49.5625,0 z m 34.875,14.84375 c 0.70182,0.54888 2.28188,1.3665 2.4375,1.75 -0.89428,-0.21823 -2.8523,0.62105 -2.4375,-0.90625 0,-0.28645 0,-0.5573 0,-0.84375 z m -31.21875,153.59375 8.53125,0 0,6.15625 -8.53125,0 0,-6.15625 z m 12.3125,0 8.5625,0 0,6.15625 -8.5625,0 0,-6.15625 z m 12.53125,0 8.5625,0 0,6.15625 -8.5625,0 0,-6.15625 z m 12.53125,0 8.5625,0 0,6.15625 -8.5625,0 0,-6.15625 z m 12.34375,0 8.5625,0 0,6.15625 -8.5625,0 0,-6.15625 z m -86.9375,11.9375 5.90625,0 0,91.46875 -5.90625,0 0,-91.46875 z m 12.4375,0.21875 5.90625,0 0,91.46875 -5.90625,0 0,-91.46875 z m 101.71875,0 5.90625,0 0,91.46875 -5.90625,0 0,-91.46875 z m 12.4375,0 5.90625,0 0,91.46875 -5.90625,0 0,-91.46875 z m -60.53125,16.90625 c 18.56009,0 33.625,14.96363 33.625,33.40625 0,18.44262 -15.06491,33.40625 -33.625,33.40625 -18.56009,-10e-6 -33.625,-14.96363 -33.625,-33.40625 0,-18.44263 15.06491,-33.40625 33.625,-33.40625 z m -28.84375,68.21875 8.53125,0 0,6.15625 -8.53125,0 0,-6.15625 z m 12.53125,0.1875 8.53125,0 0,6.1875 -8.53125,0 0,-6.1875 z m 12.125,0 8.5625,0 0,6.1875 -8.5625,0 0,-6.1875 z m 12.53125,0 8.5625,0 0,6.1875 -8.5625,0 0,-6.1875 z m 12.53125,0 8.5625,0 0,6.1875 -8.5625,0 0,-6.1875 z"
         style="fill:#000000;fill-opacity:1;fill-rule:evenodd;stroke:none" />
      <path
         id="path3404"
         d="m 339.83664,404.45333 c 0,9.75 0,19.5 0,29.25 -2.802,4.91668 -5.60568,9.83199 -8.40625,14.75 1.19557,0.68052 2.39819,1.35076 3.59375,2.03125 2.84136,-4.97447 5.6632,-9.95898 8.5,-14.9375 0.13161,-0.23119 0.27555,-0.45573 0.40625,-0.6875 0,-0.0104 0,-0.0208 0,-0.0312 0.0115,-0.0202 0.0197,-0.0423 0.0312,-0.0625 -10e-6,-6.66666 0,-13.33333 0,-20 0.70888,0 1.41776,0 2.125,0 -10e-6,-2.07227 0,-4.14648 0,-6.21875 -0.70725,0 -1.41616,0 -2.125,0 0,-1.36458 0,-2.72917 0,-4.09375 -1.37289,0 -2.75212,0 -4.125,0 z"
         style="fill:#000000;fill-opacity:1;fill-rule:evenodd;stroke:none" />
    </g>
  </g>
</svg>
